<svg xmlns="http://www.w3.org/2000/svg" width="420" height="304" viewBox="0 0 420 304" role="img" aria-labelledby="title desc">
<title id="title">GDS</title><desc id="desc">Canonical source is compiled into an immutable policy and context bundle, then projected into repositories. Identity is independent of checkout paths.</desc>
<!-- GENERATED FILE. Edit-source: tools/render_profile.py; regenerate with python3 tools/render_profile.py. -->
<defs><pattern id="grid" width="32" height="32" patternUnits="userSpaceOnUse"><path d="M32 0H0V32" fill="none" stroke="#232b2f" stroke-width=".6"/></pattern>
<marker id="arrow" markerWidth="6" markerHeight="6" refX="5" refY="3" orient="auto"><path d="m1 1 4 2-4 2" fill="none" stroke="#f39364" stroke-width="1"/></marker></defs>
<rect width="420" height="304" rx="12" fill="#14191d"/>
<rect x="1" y="1" width="418" height="302" rx="11" fill="url(#grid)" stroke="#42494c"/>
<text x="24" y="35" fill="#b3b5af" font-family="ui-monospace, monospace" font-size="12" font-weight="400" text-anchor="start">01 / OPEN SOURCE</text>
<text x="24" y="78" fill="#f0ece4" font-family="Arial, Helvetica, sans-serif" font-size="32" font-weight="600" text-anchor="start">GDS</text>
<text x="24" y="107" fill="#b3b5af" font-family="Arial, Helvetica, sans-serif" font-size="18" font-weight="400" text-anchor="start">Repository control plane</text>
<path d="M30 244h92" fill="none" stroke="#42494c" stroke-width="0.7" stroke-linejoin="round" stroke-linecap="round"/>
<path d="M127 211H159" fill="none" stroke="#f39364" stroke-width="1.5" stroke-linejoin="round" stroke-linecap="round" marker-end="url(#arrow)"/>
<path d="M164 244h92" fill="none" stroke="#42494c" stroke-width="0.7" stroke-linejoin="round" stroke-linecap="round"/>
<path d="M261 211H293" fill="none" stroke="#f39364" stroke-width="1.5" stroke-linejoin="round" stroke-linecap="round" marker-end="url(#arrow)"/>
<path d="M298 244h92" fill="none" stroke="#42494c" stroke-width="0.7" stroke-linejoin="round" stroke-linecap="round"/>
<g transform="translate(76 207)">
<path d="M-46 0 0 17.94V27.94L-46 10Z" fill="#263035" stroke="#42494c" stroke-width="1.1" stroke-linejoin="round"/>
<path d="M0 17.94 46 0V10L0 27.94Z" fill="#1e272b" stroke="#42494c" stroke-width="1.1" stroke-linejoin="round"/>
<path d="M-46 0 0 -17.94 46 0 0 17.94Z" fill="#313a3e" stroke="#42494c" stroke-width="1.1" stroke-linejoin="round"/>
<path d="M-46 0 0 17.94 46 0" fill="none" stroke="#f39364" stroke-width="2" stroke-linejoin="round" stroke-linecap="round"/>
<path d="M-18.400000000000002 -2 -4 6.44M-10.58 -4.14 11.96 4.6000000000000005" fill="none" stroke="#b3b5af" stroke-width="1.2" stroke-linejoin="round" stroke-linecap="round"/>
</g>
<g transform="translate(210 219)">
<path d="M-46 0 0 17.94V27.94L-46 10Z" fill="#263035" stroke="#42494c" stroke-width="1.1" stroke-linejoin="round"/>
<path d="M0 17.94 46 0V10L0 27.94Z" fill="#1e272b" stroke="#42494c" stroke-width="1.1" stroke-linejoin="round"/>
<path d="M-46 0 0 -17.94 46 0 0 17.94Z" fill="#313a3e" stroke="#42494c" stroke-width="1.1" stroke-linejoin="round"/>
<path d="M-46 0 0 17.94 46 0" fill="none" stroke="#42494c" stroke-width="2" stroke-linejoin="round" stroke-linecap="round"/>
<path d="M-18.400000000000002 -2 -4 6.44M-10.58 -4.14 11.96 4.6000000000000005" fill="none" stroke="#b3b5af" stroke-width="1.2" stroke-linejoin="round" stroke-linecap="round"/>
</g>
<g transform="translate(210 199)">
<path d="M-46 0 0 17.94V27.94L-46 10Z" fill="#263035" stroke="#42494c" stroke-width="1.1" stroke-linejoin="round"/>
<path d="M0 17.94 46 0V10L0 27.94Z" fill="#1e272b" stroke="#42494c" stroke-width="1.1" stroke-linejoin="round"/>
<path d="M-46 0 0 -17.94 46 0 0 17.94Z" fill="#313a3e" stroke="#42494c" stroke-width="1.1" stroke-linejoin="round"/>
<path d="M-46 0 0 17.94 46 0" fill="none" stroke="#f39364" stroke-width="2" stroke-linejoin="round" stroke-linecap="round"/>
<path d="M-18.400000000000002 -2 -4 6.44M-10.58 -4.14 11.96 4.6000000000000005" fill="none" stroke="#b3b5af" stroke-width="1.2" stroke-linejoin="round" stroke-linecap="round"/>
</g>
<g transform="translate(344 226)">
<path d="M-46 0 0 17.94V23.94L-46 6Z" fill="#263035" stroke="#42494c" stroke-width="1.1" stroke-linejoin="round"/>
<path d="M0 17.94 46 0V6L0 23.94Z" fill="#1e272b" stroke="#42494c" stroke-width="1.1" stroke-linejoin="round"/>
<path d="M-46 0 0 -17.94 46 0 0 17.94Z" fill="#313a3e" stroke="#42494c" stroke-width="1.1" stroke-linejoin="round"/>
<path d="M-46 0 0 17.94 46 0" fill="none" stroke="#42494c" stroke-width="2" stroke-linejoin="round" stroke-linecap="round"/>
<path d="M-18.400000000000002 -2 -4 6.44M-10.58 -4.14 11.96 4.6000000000000005" fill="none" stroke="#b3b5af" stroke-width="1.2" stroke-linejoin="round" stroke-linecap="round"/>
</g>
<g transform="translate(344 210)">
<path d="M-46 0 0 17.94V23.94L-46 6Z" fill="#263035" stroke="#42494c" stroke-width="1.1" stroke-linejoin="round"/>
<path d="M0 17.94 46 0V6L0 23.94Z" fill="#1e272b" stroke="#42494c" stroke-width="1.1" stroke-linejoin="round"/>
<path d="M-46 0 0 -17.94 46 0 0 17.94Z" fill="#313a3e" stroke="#42494c" stroke-width="1.1" stroke-linejoin="round"/>
<path d="M-46 0 0 17.94 46 0" fill="none" stroke="#42494c" stroke-width="2" stroke-linejoin="round" stroke-linecap="round"/>
<path d="M-18.400000000000002 -2 -4 6.44M-10.58 -4.14 11.96 4.6000000000000005" fill="none" stroke="#b3b5af" stroke-width="1.2" stroke-linejoin="round" stroke-linecap="round"/>
</g>
<g transform="translate(344 194)">
<path d="M-46 0 0 17.94V23.94L-46 6Z" fill="#263035" stroke="#42494c" stroke-width="1.1" stroke-linejoin="round"/>
<path d="M0 17.94 46 0V6L0 23.94Z" fill="#1e272b" stroke="#42494c" stroke-width="1.1" stroke-linejoin="round"/>
<path d="M-46 0 0 -17.94 46 0 0 17.94Z" fill="#313a3e" stroke="#42494c" stroke-width="1.1" stroke-linejoin="round"/>
<path d="M-46 0 0 17.94 46 0" fill="none" stroke="#f39364" stroke-width="2" stroke-linejoin="round" stroke-linecap="round"/>
<path d="M-18.400000000000002 -2 -4 6.44M-10.58 -4.14 11.96 4.6000000000000005" fill="none" stroke="#b3b5af" stroke-width="1.2" stroke-linejoin="round" stroke-linecap="round"/>
</g>
<text x="76" y="275" fill="#f0ece4" font-family="Arial, Helvetica, sans-serif" font-size="19" font-weight="400" text-anchor="middle">Source</text>
<text x="210" y="275" fill="#f0ece4" font-family="Arial, Helvetica, sans-serif" font-size="19" font-weight="400" text-anchor="middle">Compile</text>
<text x="344" y="275" fill="#f0ece4" font-family="Arial, Helvetica, sans-serif" font-size="19" font-weight="400" text-anchor="middle">Repositories</text>
<text x="24" y="139" fill="#b3b5af" font-family="Arial, Helvetica, sans-serif" font-size="14" font-weight="400" text-anchor="start">Identity independent of paths</text>
</svg>
