<svg xmlns="http://www.w3.org/2000/svg" width="960" height="330" viewBox="0 0 960 330" role="img" aria-labelledby="title desc">
<title id="title">GDS</title><desc id="desc">Canonical source passes through a policy and context compiler into an immutable bundle and repository-local projections. Repository identity is separate from checkout location.</desc>
<!-- Generated by tools/render_profile.py. Edit the drawing source, not this file. -->
<defs><pattern id="grid" width="24" height="24" patternUnits="userSpaceOnUse"><path d="M24 0H0V24" fill="none" stroke="#182230"/></pattern>
<marker id="arrow" markerWidth="8" markerHeight="8" refX="7" refY="4" orient="auto" markerUnits="userSpaceOnUse"><path d="m2 1 5 3-5 3" fill="none" stroke="#8a9cff" stroke-width="1.5"/></marker></defs>
<rect x="1" y="1" width="958" height="328" rx="10" fill="#0d1117" stroke="#364459"/>
<rect x="16" y="16" width="928" height="298" fill="url(#grid)" opacity=".7"/>
<path d="M12 16h8M16 12v8" fill="none" stroke="#364459" stroke-width="1" stroke-linecap="round" stroke-linejoin="round"/>
<path d="M940 16h8M944 12v8" fill="none" stroke="#364459" stroke-width="1" stroke-linecap="round" stroke-linejoin="round"/>
<path d="M12 314h8M16 310v8" fill="none" stroke="#364459" stroke-width="1" stroke-linecap="round" stroke-linejoin="round"/>
<path d="M940 314h8M944 310v8" fill="none" stroke="#364459" stroke-width="1" stroke-linecap="round" stroke-linejoin="round"/>
<text x="32" y="45" font-family="monospace" font-size="16" font-weight="400" text-anchor="start" fill="#8a9cff">01</text>
<text x="76" y="48" font-family="Arial, Helvetica, sans-serif" font-size="36" font-weight="600" text-anchor="start" fill="#eef2f9">GDS</text>
<text x="32" y="87" font-family="Arial, Helvetica, sans-serif" font-size="22" font-weight="400" text-anchor="start" fill="#aab7ca">Repository control plane</text>
<g transform="translate(784 80) scale(1)">
<path d="M-68 32 0 -2 68 32 0 66Z" fill="#111823" stroke="#364459" stroke-width="1.5"/>
<path d="M-68 16 0 -18 68 16 0 50Z" fill="#111823" stroke="#364459" stroke-width="1.5"/>
<path d="M-68 0 0 -34 68 0 0 34Z" fill="#111823" stroke="#364459" stroke-width="1.5"/>
<path d="M-68 0 0 34 68 0" fill="none" stroke="#8a9cff" stroke-width="2" stroke-linecap="round" stroke-linejoin="round"/>
<path d="M-36 -4-10 9M-22 -11 15 8M-8 -18 34 3" fill="none" stroke="#aab7ca" stroke-width="1.5" stroke-linecap="round" stroke-linejoin="round"/>
<path d="M0 34v32" fill="none" stroke="#8a9cff" stroke-width="1.6" stroke-linecap="round" stroke-linejoin="round" stroke-dasharray="5 5"/>
</g>
<path d="M654 64v56m-10-46 10-10 10 10M914 96v-56m-10 46 10 10 10-10" fill="none" stroke="#364459" stroke-width="1" stroke-linecap="round" stroke-linejoin="round"/>
<text x="32" y="133" font-family="Arial, Helvetica, sans-serif" font-size="25" font-weight="500" text-anchor="start" fill="#eef2f9">One source. Local projections.</text>
<text x="32" y="301" font-family="Arial, Helvetica, sans-serif" font-size="20" font-weight="400" text-anchor="start" fill="#aab7ca">Repository identity stays separate from checkout location.</text>
<rect x="32" y="192" width="200" height="66" rx="5" fill="#111823" stroke="#364459"/>
<path d="M32 204V192h12" fill="none" stroke="#8a9cff" stroke-width="2" stroke-linecap="round" stroke-linejoin="round"/>
<text x="132.0" y="220" font-family="Arial, Helvetica, sans-serif" font-size="23" font-weight="600" text-anchor="middle" fill="#eef2f9">Source</text>
<text x="132.0" y="243" font-family="Arial, Helvetica, sans-serif" font-size="18" font-weight="400" text-anchor="middle" fill="#aab7ca">identity + policy</text>
<rect x="264" y="192" width="200" height="66" rx="5" fill="#1b2545" stroke="#8a9cff"/>
<path d="M264 204V192h12" fill="none" stroke="#8a9cff" stroke-width="2" stroke-linecap="round" stroke-linejoin="round"/>
<text x="364.0" y="220" font-family="Arial, Helvetica, sans-serif" font-size="23" font-weight="600" text-anchor="middle" fill="#eef2f9">Compiler</text>
<text x="364.0" y="243" font-family="Arial, Helvetica, sans-serif" font-size="18" font-weight="400" text-anchor="middle" fill="#aab7ca">policy + context</text>
<rect x="496" y="192" width="200" height="66" rx="5" fill="#111823" stroke="#364459"/>
<path d="M496 204V192h12" fill="none" stroke="#8a9cff" stroke-width="2" stroke-linecap="round" stroke-linejoin="round"/>
<text x="596.0" y="220" font-family="Arial, Helvetica, sans-serif" font-size="23" font-weight="600" text-anchor="middle" fill="#eef2f9">Bundle</text>
<text x="596.0" y="243" font-family="Arial, Helvetica, sans-serif" font-size="18" font-weight="400" text-anchor="middle" fill="#aab7ca">immutable output</text>
<rect x="728" y="192" width="200" height="66" rx="5" fill="#111823" stroke="#364459"/>
<path d="M728 204V192h12" fill="none" stroke="#8a9cff" stroke-width="2" stroke-linecap="round" stroke-linejoin="round"/>
<text x="828.0" y="220" font-family="Arial, Helvetica, sans-serif" font-size="23" font-weight="600" text-anchor="middle" fill="#eef2f9">Repositories</text>
<text x="828.0" y="243" font-family="Arial, Helvetica, sans-serif" font-size="18" font-weight="400" text-anchor="middle" fill="#aab7ca">local projections</text>
<path d="M232 225H256" fill="none" stroke="#8a9cff" stroke-width="1.6" stroke-linecap="round" stroke-linejoin="round" marker-end="url(#arrow)"/>
<path d="M464 225H488" fill="none" stroke="#8a9cff" stroke-width="1.6" stroke-linecap="round" stroke-linejoin="round" marker-end="url(#arrow)"/>
<path d="M696 225H720" fill="none" stroke="#8a9cff" stroke-width="1.6" stroke-linecap="round" stroke-linejoin="round" marker-end="url(#arrow)"/>
<style>.signal{opacity:0;animation:flow 3.6s ease-in-out 1}@keyframes flow{0%{stroke-dashoffset:60;opacity:0}20%{opacity:1}80%{opacity:1}100%{stroke-dashoffset:0;opacity:0}}@media(prefers-reduced-motion:reduce){.signal{animation:none;opacity:0}}</style>
<path class="signal" d="M232 225H256" fill="none" stroke="#eef2f9" stroke-width="2" stroke-dasharray="8 52"/>
<path class="signal" d="M464 225H488" fill="none" stroke="#eef2f9" stroke-width="2" stroke-dasharray="8 52"/>
<path class="signal" d="M696 225H720" fill="none" stroke="#eef2f9" stroke-width="2" stroke-dasharray="8 52"/>
</svg>
